<svg width="1200" height="300" viewBox="0 0 1200 300" fill="none" xmlns="http://www.w3.org/2000/svg">
<path d="M427.275 62.4085C427.854 63.4481 429.238 65.2597 431.428 67.8433C434.516 71.491 438.554 73.4195 443.543 73.6286C450.906 73.9331 458.131 72.6044 462.652 66.45C466.62 61.0706 469.277 53.6705 467.515 46.9071C462.246 26.6998 438.569 26.3123 428.318 41.8691C424.969 46.9532 425.218 55.5897 426.593 60.7108C426.752 61.3053 426.981 61.8754 427.275 62.4085ZM358.552 211.149C364.119 206.75 368.594 202.632 371.978 198.794C379.119 190.692 383.585 185.664 385.375 183.707C389.952 178.706 392.923 174.019 397.481 167.837C397.53 167.767 397.602 167.718 397.684 167.696C397.765 167.674 397.852 167.682 397.93 167.717C398.008 167.753 398.072 167.815 398.111 167.892C398.15 167.969 398.162 168.057 398.146 168.141C396.632 175.219 395.064 181.797 395.433 188.93C395.759 195.167 395.922 198.375 395.922 198.554C395.897 200.03 396.679 202.943 398.266 207.292C401.267 215.516 406.671 221.412 414.477 224.98C433.467 233.663 455.805 225.441 467.625 209.285C470.264 205.668 472.663 203.121 470.91 199.255C469.591 196.339 459.063 191.421 456.036 190.056C455.538 189.829 454.978 189.774 454.446 189.901C453.915 190.029 453.441 190.33 453.102 190.757C448.285 196.773 442.113 201.442 434.048 200.953C429.13 200.648 425.771 198.757 424.987 193.71C424.274 189.127 424.218 184.612 424.821 180.164C425.965 171.7 427.445 163.715 429.259 156.211C432.766 141.73 436.653 127.004 440.922 112.032C442.814 105.416 441.596 97.3791 435.543 93.2269C429.619 89.1578 422.8 90.468 417.402 94.7955C415.92 95.9827 414.21 98.2003 412.272 101.448C410.937 103.675 409.415 106.049 407.705 108.572C394.313 128.262 380.073 146.393 364.984 162.965C363.04 165.1 361.028 167.163 358.949 169.156C358.531 169.562 358.309 170.014 358.285 170.513C357.811 170.537 357.497 170.636 357.344 170.808C354.311 174.081 350.885 177.319 347.065 180.524C343.282 183.698 339.868 185.341 336.001 187.86C325.658 194.605 312.74 197.17 300.348 196.348C294.12 195.933 288.058 193.368 285.179 187.693C280.658 178.799 279.578 169.682 279.273 159.2C279.064 151.923 278.994 145.372 279.061 139.547C279.089 137.388 279.689 136.262 281.091 134.896C285.52 130.606 292.966 123.243 300.2 117.429C306.967 111.998 311.793 108.055 314.678 105.6C317.304 103.355 319.826 101.362 322.244 99.6212C328.039 95.4414 345.985 80.1337 353.136 82.8649C353.538 83.0173 353.908 83.246 354.225 83.5385L356.781 85.9744C357.019 86.2005 357.293 86.3845 357.593 86.5188C367.253 90.8832 378.04 87.8475 382.063 77.7255C383.853 73.2288 384.757 69.9778 384.776 67.9725C384.822 61.735 383.272 53.975 378.686 49.4076C375.93 46.6579 373.592 44.871 371.673 44.0467C359.457 38.7965 345.109 42.5242 333.667 48.9278C326.242 53.0861 320.063 56.9553 315.13 60.5354C311.482 63.1867 304.946 68.1601 295.522 75.4556C289.906 79.8046 284.844 84.0337 280.335 88.1428C276.219 91.889 271.184 96.1673 265.23 100.978C265.191 101.009 265.146 101.031 265.097 101.043C265.049 101.055 264.998 101.055 264.949 101.044C264.901 101.034 264.855 101.012 264.816 100.982C264.776 100.951 264.744 100.912 264.722 100.867C262.388 96.281 259.601 90.3019 256.372 86.2143C251.42 79.9399 245.788 74.9973 239.477 71.3864C233.227 67.8063 226.116 65.6103 218.144 64.7983C203.781 63.3405 190.217 65.8472 177.453 72.3184C174.18 73.9793 170.044 76.4952 165.043 79.8661C160.589 82.8618 156.861 85.9375 153.859 89.0932C146.631 96.6901 141.993 102.122 139.945 105.388C135.171 113.004 132.117 118.401 130.782 121.582C128.525 126.983 126.427 133.804 124.49 142.047C123.019 148.272 123.982 154.301 127.378 160.132C129.401 163.602 132.468 166.065 136.577 167.523C138.453 168.194 141.061 168.587 144.402 168.704C153.499 169.018 158.482 161.719 160.733 153.839C162.81 146.569 163.861 141.918 166.205 136.659C170.883 126.149 180.682 115.067 190.961 109.614C195.384 107.27 198.832 105.702 201.305 104.908C206.444 103.257 214.103 102.86 219.233 105.61C223.145 107.713 226.384 110.497 228.949 113.96C231.81 117.826 233.433 124.442 234.292 128.973C234.395 129.528 234.373 130.1 234.226 130.644C234.079 131.189 233.811 131.693 233.443 132.119C230.687 135.312 227.599 138.793 224.179 142.564C219.239 148.008 209.646 157.641 195.4 171.463C192.89 173.893 191.601 175.139 191.533 175.2C183.663 182.222 176.383 189.336 167.626 196.478C164.249 199.234 159.506 203.05 153.398 207.928C149.418 211.103 145.386 214.077 141.301 216.851C135.027 221.114 130.853 223.91 128.78 225.238C125.883 227.09 123.662 228.179 122.118 228.505C114.395 230.129 107.77 233.912 107.41 242.576C107.309 245.012 107.014 248.103 108.038 250.373C112.073 259.292 119.224 263.1 129.491 261.796C137.961 260.726 144.734 255.42 151.497 252.052C156.729 249.459 161.306 246.331 165.264 243.508C174.685 236.791 185.25 229.234 194.827 221.335C211.448 207.618 227.334 192.845 242.485 177.018C242.543 176.958 242.618 176.916 242.7 176.899C242.782 176.881 242.867 176.888 242.945 176.918C243.023 176.949 243.09 177.002 243.138 177.07C243.186 177.139 243.212 177.22 243.214 177.304C243.371 183.67 244.764 187.943 246.905 196.754C247.631 199.763 248.895 202.946 250.697 206.304C253.287 211.139 255.36 214.597 256.916 216.676C262.133 223.645 268.724 228.748 276.69 231.983C281.531 233.952 287.482 235.081 294.544 235.37C300.726 235.616 306.804 235.29 312.777 234.392C318.59 233.506 324.966 230.553 329.183 229.197C332.744 228.059 336.171 226.539 339.462 224.639C347.563 219.97 352.721 217.017 358.552 211.149ZM835.932 78.4452C835.932 74.5958 834.403 70.904 831.681 68.1821C828.959 65.4601 825.268 63.931 821.418 63.931C817.569 63.931 813.877 65.4601 811.155 68.1821C808.433 70.904 806.904 74.5958 806.904 78.4452C806.904 82.2946 808.433 85.9863 811.155 88.7082C813.877 91.4301 817.569 92.9593 821.418 92.9593C825.268 92.9593 828.959 91.4301 831.681 88.7082C834.403 85.9863 835.932 82.2946 835.932 78.4452ZM508.861 121.535C508.234 114.126 510.457 109.826 500.446 109.854C498.982 109.854 495.448 109.82 489.844 109.753C486.089 109.706 483.062 111.109 483.035 114.92C482.868 139.175 482.841 163.777 482.951 188.727C483.001 201.411 482.985 211.527 482.905 219.075C482.85 223.642 486.061 224.399 490.278 224.362C497.789 224.3 501.741 224.279 502.135 224.297C506.028 224.491 508.501 223.448 508.538 219.379C508.63 210.601 508.64 188.773 508.566 153.895C508.538 139.491 518.042 132.682 531.458 132.442C538.243 132.319 543.167 132.316 546.231 132.433C555.079 132.765 562.23 134.961 565.718 143.394C566.702 145.793 567.195 150.195 567.195 156.598C567.188 177.218 567.17 198.074 567.139 219.167C567.133 222.55 568.634 224.251 571.642 224.27C576.723 224.306 581.829 224.334 586.959 224.353C590.705 224.362 592.689 223.319 592.698 219.435C592.766 198.791 592.778 176.618 592.735 152.917C592.726 143.883 591.757 135.422 587.863 128.087C581.743 116.578 571.903 110.586 558.346 110.112C552.779 109.922 545.889 109.789 537.677 109.716C526.482 109.617 517.125 113.643 509.608 121.794C509.551 121.855 509.478 121.898 509.396 121.917C509.315 121.937 509.23 121.933 509.151 121.906C509.072 121.879 509.003 121.829 508.952 121.764C508.9 121.698 508.869 121.619 508.861 121.535ZM703.22 121.711C698.249 116.599 692.424 113.065 685.744 111.109C682.121 110.051 676.883 109.611 670.03 109.789C667.299 109.863 650.287 109.857 618.995 109.771C612.518 109.753 611.235 112.041 611.217 118.14C611.094 152.901 611.103 186.808 611.244 219.859C611.251 222.695 612.604 224.183 615.304 224.325C617.193 224.417 622.489 224.426 631.193 224.353C633.962 224.334 635.881 223.421 636.111 220.551C636.284 218.33 636.37 215.876 636.37 213.188C636.351 173.173 636.336 152.994 636.324 152.649C636.121 147.094 636.554 143.225 637.625 141.042C640.245 135.696 644.699 132.848 650.985 132.497C653.661 132.35 658.644 132.294 665.933 132.331C672.558 132.362 676.923 132.925 679.026 134.02C687.552 138.458 687.949 145.295 687.931 155.177C687.869 191.446 687.891 213.077 687.995 220.071C688.032 222.876 689.395 224.288 692.083 224.306C699.304 224.362 704.681 224.346 708.212 224.26C711.447 224.18 713.065 222.409 713.065 218.946C713.108 178.494 713.117 157.598 713.093 156.257C712.933 149.109 713.379 144.369 714.431 142.038C718.011 134.121 725.106 132.285 733.254 132.423C744.059 132.608 757.872 129.849 762.365 142.389C763.165 144.622 763.546 148.949 763.509 155.371C763.448 168.172 763.445 189.194 763.5 218.438C763.5 220.523 763.719 221.88 764.155 222.507C764.943 223.657 766.164 224.27 767.818 224.343C768.975 224.393 774.526 224.337 784.473 224.177C785.089 224.169 785.693 223.998 786.223 223.68C786.753 223.362 787.19 222.91 787.49 222.369C788.253 221.003 788.628 219.364 788.616 217.451C788.555 209.128 788.549 185.565 788.598 146.762C788.604 142.985 787.783 138.393 786.134 132.986C784.621 128.034 782.372 123.953 779.389 120.742C770.596 111.284 760.954 109.697 747.74 109.78C738.698 109.842 733.198 109.873 731.242 109.873C720.65 109.873 711.961 113.8 705.176 121.655C705.057 121.795 704.909 121.908 704.744 121.987C704.578 122.066 704.397 122.11 704.213 122.115C704.029 122.12 703.845 122.087 703.674 122.017C703.503 121.948 703.349 121.843 703.22 121.711ZM833.755 114.726C833.755 113.441 833.245 112.209 832.336 111.301C831.428 110.392 830.196 109.882 828.911 109.882H812.856C811.571 109.882 810.339 110.392 809.43 111.301C808.522 112.209 808.011 113.441 808.011 114.726V219.582C808.011 220.867 808.522 222.099 809.43 223.008C810.339 223.916 811.571 224.426 812.856 224.426H828.911C830.196 224.426 831.428 223.916 832.336 223.008C833.245 222.099 833.755 220.867 833.755 219.582V114.726ZM881.754 121.554C881.117 116.765 882.954 109.919 875.443 109.909C868.738 109.891 864.173 109.857 861.75 109.808C857.961 109.722 856.066 111.804 856.066 116.055C856.035 149.598 856.047 183.932 856.103 219.056C856.112 221.741 856.85 224.371 859.849 224.371C866.917 224.365 872.37 224.371 876.209 224.389C881.975 224.426 881.533 219.702 881.514 214.766C881.459 190.972 881.477 170.307 881.569 152.769C881.616 144.373 886.672 135.976 895.041 133.651C897.828 132.876 900.356 132.454 902.626 132.386C907.959 132.227 914.396 132.313 921.938 132.645C932.78 133.115 939.183 140.838 938.971 151.856C938.663 167.732 938.642 190.477 938.906 220.09C938.931 222.913 940.34 224.328 943.133 224.334C952.255 224.34 957.068 224.349 957.573 224.362C961.863 224.454 964.299 223.448 964.318 218.927C964.392 204.127 964.438 184.07 964.456 158.757C964.462 149.678 964.342 144.299 964.096 142.619C961.771 127.007 953.273 114.652 937.218 111.017C929.596 109.291 920.12 109.78 912.757 109.771C907.578 109.771 903.453 110.168 900.383 110.961C893.512 112.745 887.576 116.362 882.575 121.812C882.516 121.879 882.438 121.928 882.352 121.951C882.265 121.975 882.174 121.973 882.087 121.946C882.001 121.919 881.924 121.868 881.865 121.798C881.806 121.729 881.768 121.644 881.754 121.554ZM1067.79 209.875C1068.11 215.144 1068.49 222.323 1067.4 227.148C1065.24 236.732 1059.58 242.49 1050.42 244.421C1048.02 244.932 1044.2 245.15 1038.96 245.077C1027.5 244.91 1016.92 246.211 1008.93 235.785C1008.52 235.256 1008 234.824 1007.41 234.518C1006.82 234.211 1006.17 234.039 1005.5 234.013C1001.86 233.872 997.714 233.912 993.069 234.133C990.553 234.256 988.64 235.437 987.33 237.676C986.377 239.3 986.45 241.549 987.552 244.421C989.397 249.244 991.452 252.88 993.715 255.328C1007.47 270.22 1027.03 268.809 1045.39 268.67C1058.25 268.578 1073.08 264.14 1081.46 253.87C1086.45 247.762 1090.19 238.876 1091.5 230.212C1092.21 225.549 1092.57 222.277 1092.57 220.394C1092.69 165.493 1092.73 135.176 1092.69 129.443C1092.65 121.662 1092.63 117.54 1092.64 117.079C1092.71 112.622 1091.7 109.78 1086.92 109.882C1083.12 109.962 1078.81 109.989 1073.99 109.965C1067.32 109.928 1067.92 116.784 1067.95 121.342C1067.95 121.391 1067.93 121.439 1067.9 121.479C1067.88 121.52 1067.84 121.552 1067.79 121.57C1067.75 121.589 1067.7 121.594 1067.65 121.584C1067.6 121.575 1067.56 121.552 1067.52 121.517C1060.04 113.674 1050.83 109.749 1039.89 109.743C1025.16 109.734 1013.7 108.664 1002.27 115.824C996.388 119.502 992.128 123.375 989.489 127.441C988.041 129.674 985.116 133.54 983.888 136.613C981.059 143.693 979.506 151.065 979.229 158.73C979.044 163.866 979.069 169.615 979.302 175.975C979.665 186.199 982.489 195.189 987.773 202.946C996.05 215.116 1009.23 222.193 1023.95 222.599C1028.01 222.71 1033.09 222.747 1039.2 222.71C1050.61 222.643 1059.99 218.315 1067.36 209.728C1067.39 209.691 1067.43 209.666 1067.48 209.653C1067.53 209.641 1067.58 209.643 1067.62 209.658C1067.67 209.674 1067.71 209.703 1067.74 209.742C1067.77 209.78 1067.79 209.827 1067.79 209.875Z" fill="#191918"/>
<path d="M426.593 60.7107C425.218 55.5897 424.969 46.9532 428.318 41.8691C438.57 26.3123 462.246 26.6998 467.515 46.9071C469.277 53.6705 466.62 61.0706 462.652 66.45C458.131 72.6044 450.906 73.9331 443.543 73.6286C438.554 73.4195 434.516 71.491 431.428 67.8432C429.238 65.2597 427.854 63.4481 427.276 62.4085C426.982 61.8754 426.752 61.3053 426.593 60.7107Z" fill="#015EF8"/>
<path d="M358.285 170.513L358.552 211.149C352.721 217.017 347.563 219.97 339.462 224.639C336.171 226.539 332.744 228.059 329.183 229.197C324.966 230.553 318.59 233.506 312.777 234.392C306.804 235.29 300.726 235.616 294.544 235.37C287.482 235.081 281.531 233.952 276.69 231.983C268.724 228.748 262.133 223.645 256.916 216.676C255.36 214.597 253.287 211.14 250.697 206.305C248.895 202.946 247.631 199.763 246.905 196.755C244.764 187.943 243.371 183.671 243.214 177.304C243.212 177.22 243.186 177.139 243.138 177.07C243.09 177.002 243.023 176.949 242.945 176.918C242.867 176.888 242.782 176.881 242.7 176.899C242.618 176.916 242.543 176.958 242.485 177.018C227.334 192.845 211.448 207.618 194.827 221.335C185.25 229.234 174.685 236.791 165.264 243.508C161.306 246.332 156.729 249.459 151.497 252.052C144.734 255.42 137.961 260.726 129.491 261.796C119.224 263.1 112.073 259.292 108.038 250.373C107.014 248.103 107.309 245.012 107.41 242.576C107.77 233.912 114.395 230.129 122.118 228.505C123.662 228.179 125.883 227.09 128.78 225.238C130.853 223.91 135.027 221.114 141.301 216.851C145.386 214.077 149.418 211.103 153.398 207.928C159.506 203.05 164.249 199.234 167.626 196.478C176.383 189.336 183.663 182.222 191.533 175.2C191.601 175.139 192.89 173.893 195.4 171.463C209.646 157.641 219.239 148.008 224.179 142.564C227.599 138.793 230.687 135.312 233.443 132.119C233.811 131.693 234.079 131.189 234.226 130.644C234.373 130.1 234.395 129.528 234.292 128.973C233.433 124.442 231.81 117.826 228.949 113.96C226.384 110.497 223.145 107.713 219.233 105.61C214.103 102.86 206.444 103.257 201.305 104.908C198.832 105.702 195.384 107.271 190.961 109.614C180.682 115.067 170.883 126.149 166.205 136.659C163.861 141.918 162.81 146.569 160.733 153.839C158.482 161.719 153.499 169.018 144.402 168.704C141.061 168.587 138.453 168.194 136.577 167.523C132.468 166.065 129.401 163.602 127.378 160.132C123.982 154.301 123.019 148.272 124.49 142.047C126.427 133.804 128.525 126.983 130.782 121.582C132.117 118.401 135.171 113.004 139.945 105.388C141.993 102.122 146.631 96.6902 153.859 89.0932C156.861 85.9376 160.589 82.8619 165.043 79.8662C170.044 76.4952 174.18 73.9793 177.453 72.3185C190.217 65.8472 203.781 63.3405 218.144 64.7984C226.116 65.6104 233.227 67.8064 239.477 71.3865C245.789 74.9974 251.42 79.94 256.372 86.2144C259.601 90.302 262.388 96.2811 264.722 100.867C264.744 100.912 264.776 100.951 264.816 100.982C264.855 101.012 264.901 101.034 264.949 101.045C264.998 101.055 265.049 101.055 265.097 101.043C265.146 101.032 265.191 101.009 265.23 100.978C271.184 96.1673 276.219 91.889 280.335 88.1428C284.844 84.0337 289.906 79.8047 295.522 75.4556C304.946 68.1601 311.482 63.1868 315.13 60.5355C320.063 56.9554 326.242 53.0862 333.667 48.9279C345.109 42.5243 359.457 38.7966 371.673 44.0468C373.592 44.871 375.93 46.658 378.686 49.4077C383.272 53.9751 384.822 61.735 384.776 67.9725C384.757 69.9779 383.853 73.2289 382.063 77.7255C378.04 87.8476 367.253 90.8833 357.593 86.5189C357.293 86.3846 357.019 86.2005 356.781 85.9745L354.225 83.5386C353.908 83.246 353.538 83.0174 353.136 82.865C345.985 80.1338 328.038 95.4414 322.244 99.6213C319.826 101.362 317.304 103.355 314.678 105.6C311.793 108.055 306.967 111.998 300.2 117.43C292.966 123.243 285.52 130.606 281.091 134.896C279.689 136.262 279.089 137.388 279.061 139.547C278.994 145.372 279.064 151.923 279.273 159.2C279.578 169.682 280.658 178.799 285.179 187.694C288.058 193.368 294.12 195.933 300.348 196.349C312.74 197.17 325.658 194.605 336.001 187.86C339.868 185.341 343.282 183.698 347.065 180.524C350.885 177.319 354.311 174.081 357.344 170.808C357.497 170.636 357.811 170.537 358.285 170.513Z" fill="#015EF8"/>
<path d="M821.419 92.959C829.435 92.959 835.934 86.4608 835.934 78.4448C835.934 70.4289 829.435 63.9307 821.419 63.9307C813.403 63.9307 806.905 70.4289 806.905 78.4448C806.905 86.4608 813.403 92.959 821.419 92.959Z" fill="white"/>
<path d="M358.553 211.149L358.285 170.513C358.31 170.015 358.531 169.562 358.949 169.156C361.029 167.163 363.04 165.1 364.984 162.965C380.073 146.393 394.314 128.262 407.705 108.572C409.415 106.05 410.938 103.675 412.273 101.448C414.21 98.2004 415.92 95.9828 417.403 94.7956C422.801 90.4681 429.62 89.1579 435.543 93.227C441.596 97.3792 442.814 105.416 440.923 112.032C436.654 127.004 432.766 141.731 429.26 156.211C427.445 163.716 425.966 171.7 424.821 180.164C424.219 184.612 424.274 189.127 424.988 193.71C425.772 198.757 429.13 200.648 434.048 200.953C442.113 201.442 448.286 196.773 453.102 190.757C453.442 190.33 453.915 190.029 454.447 189.902C454.979 189.775 455.538 189.829 456.037 190.056C459.063 191.421 469.591 196.339 470.911 199.255C472.664 203.121 470.265 205.668 467.626 209.285C455.806 225.442 433.467 233.663 414.478 224.98C406.672 221.412 401.268 215.516 398.266 207.292C396.679 202.943 395.898 200.03 395.922 198.554C395.922 198.375 395.759 195.167 395.433 188.93C395.064 181.797 396.633 175.219 398.146 168.141C398.163 168.057 398.15 167.969 398.111 167.892C398.072 167.815 398.008 167.753 397.93 167.717C397.853 167.682 397.766 167.674 397.684 167.696C397.602 167.718 397.531 167.768 397.482 167.837C392.924 174.019 389.952 178.706 385.376 183.708C383.586 185.664 379.12 190.692 371.978 198.794C368.595 202.632 364.12 206.751 358.553 211.149Z" fill="white"/>
<path d="M508.862 121.535C508.869 121.619 508.901 121.698 508.952 121.764C509.004 121.829 509.073 121.879 509.152 121.906C509.231 121.933 509.316 121.937 509.397 121.917C509.478 121.898 509.552 121.855 509.609 121.794C517.126 113.643 526.482 109.617 537.678 109.716C545.89 109.789 552.779 109.922 558.346 110.112C571.904 110.586 581.743 116.578 587.864 128.087C591.758 135.422 592.726 143.883 592.736 152.917C592.779 176.618 592.766 198.791 592.699 219.435C592.69 223.319 590.706 224.362 586.96 224.353C581.829 224.334 576.724 224.306 571.643 224.27C568.635 224.251 567.134 222.55 567.14 219.167C567.171 198.074 567.189 177.218 567.195 156.598C567.195 150.195 566.703 145.793 565.719 143.394C562.231 134.961 555.08 132.765 546.231 132.433C543.168 132.316 538.244 132.319 531.459 132.442C518.043 132.682 508.539 139.491 508.566 153.895C508.64 188.773 508.631 210.601 508.539 219.379C508.502 223.448 506.029 224.491 502.135 224.297C501.742 224.279 497.789 224.3 490.278 224.362C486.062 224.399 482.851 223.642 482.906 219.075C482.986 211.527 483.001 201.411 482.952 188.727C482.841 163.777 482.869 139.175 483.035 114.92C483.063 111.109 486.089 109.706 489.845 109.753C495.449 109.82 498.983 109.854 500.447 109.854C510.458 109.826 508.234 114.126 508.862 121.535Z" fill="white"/>
<path d="M703.221 121.711C703.35 121.844 703.504 121.948 703.675 122.018C703.846 122.087 704.03 122.12 704.214 122.115C704.398 122.11 704.579 122.066 704.745 121.987C704.91 121.908 705.058 121.795 705.177 121.656C711.962 113.801 720.651 109.873 731.243 109.873C733.199 109.873 738.699 109.842 747.741 109.781C760.954 109.698 770.597 111.285 779.39 120.742C782.373 123.953 784.622 128.035 786.135 132.987C787.784 138.394 788.605 142.986 788.599 146.763C788.549 185.565 788.555 209.128 788.617 217.451C788.629 219.364 788.254 221.004 787.491 222.369C787.191 222.91 786.754 223.363 786.224 223.68C785.694 223.998 785.09 224.169 784.474 224.178C774.527 224.338 768.976 224.393 767.819 224.344C766.165 224.27 764.943 223.658 764.156 222.508C763.719 221.88 763.501 220.524 763.501 218.438C763.446 189.195 763.449 168.172 763.51 155.371C763.547 148.949 763.166 144.622 762.366 142.389C757.872 129.849 744.06 132.608 733.255 132.424C725.107 132.285 718.012 134.122 714.432 142.038C713.38 144.37 712.934 149.109 713.094 156.257C713.118 157.598 713.109 178.494 713.066 218.946C713.066 222.409 711.448 224.181 708.213 224.261C704.682 224.347 699.305 224.362 692.084 224.307C689.395 224.288 688.033 222.877 687.996 220.072C687.891 213.077 687.87 191.446 687.931 155.178C687.95 145.296 687.553 138.458 679.027 134.02C676.924 132.925 672.559 132.362 665.934 132.332C658.645 132.295 653.662 132.35 650.986 132.498C644.7 132.848 640.246 135.696 637.626 141.042C636.555 143.226 636.122 147.095 636.325 152.65C636.337 152.994 636.352 173.174 636.371 213.188C636.371 215.876 636.284 218.331 636.112 220.551C635.882 223.421 633.962 224.334 631.194 224.353C622.49 224.427 617.194 224.418 615.305 224.325C612.605 224.184 611.251 222.695 611.245 219.859C611.104 186.808 611.095 152.902 611.218 118.14C611.236 112.041 612.519 109.753 618.996 109.771C650.288 109.857 667.3 109.864 670.031 109.79C676.884 109.611 682.121 110.051 685.745 111.109C692.425 113.065 698.25 116.599 703.221 121.711Z" fill="white"/>
<path d="M828.911 109.882H812.856C810.181 109.882 808.012 112.05 808.012 114.726V219.582C808.012 222.257 810.181 224.426 812.856 224.426H828.911C831.586 224.426 833.755 222.257 833.755 219.582V114.726C833.755 112.05 831.586 109.882 828.911 109.882Z" fill="white"/>
<path d="M881.754 121.554C881.768 121.644 881.806 121.729 881.865 121.798C881.925 121.868 882.002 121.919 882.088 121.946C882.174 121.973 882.266 121.975 882.352 121.951C882.439 121.928 882.516 121.879 882.576 121.812C887.577 116.362 893.513 112.745 900.384 110.961C903.453 110.168 907.578 109.771 912.757 109.771C920.12 109.78 929.597 109.291 937.218 111.017C953.273 114.652 961.771 127.007 964.097 142.619C964.343 144.299 964.463 149.678 964.456 158.758C964.438 184.07 964.392 204.127 964.318 218.927C964.3 223.448 961.864 224.454 957.573 224.362C957.069 224.35 952.255 224.34 943.133 224.334C940.34 224.328 938.931 222.913 938.907 220.09C938.642 190.477 938.664 167.732 938.971 151.856C939.184 140.839 932.78 133.115 921.938 132.645C914.397 132.313 907.959 132.227 902.626 132.387C900.356 132.454 897.828 132.876 895.041 133.651C886.672 135.976 881.616 144.373 881.57 152.769C881.478 170.307 881.459 190.972 881.514 214.766C881.533 219.702 881.976 224.426 876.209 224.39C872.37 224.371 866.917 224.365 859.849 224.371C856.851 224.371 856.112 221.741 856.103 219.056C856.048 183.932 856.036 149.598 856.066 116.055C856.066 111.804 857.961 109.722 861.75 109.808C864.174 109.857 868.738 109.891 875.443 109.909C882.954 109.919 881.118 116.765 881.754 121.554Z" fill="white"/>
<path d="M1067.79 209.875C1067.79 209.826 1067.77 209.78 1067.74 209.741C1067.71 209.703 1067.67 209.674 1067.62 209.658C1067.58 209.643 1067.53 209.641 1067.48 209.653C1067.43 209.665 1067.39 209.691 1067.36 209.728C1059.99 218.315 1050.61 222.642 1039.2 222.71C1033.09 222.747 1028.01 222.71 1023.95 222.599C1009.23 222.193 996.05 215.116 987.774 202.946C982.49 195.189 979.666 186.199 979.303 175.975C979.07 169.614 979.045 163.866 979.23 158.73C979.506 151.065 981.06 143.693 983.889 136.612C985.116 133.54 988.041 129.674 989.49 127.441C992.129 123.375 996.389 119.502 1002.27 115.824C1013.7 108.664 1025.16 109.734 1039.89 109.743C1050.83 109.749 1060.04 113.674 1067.52 121.517C1067.56 121.551 1067.6 121.575 1067.65 121.584C1067.7 121.594 1067.75 121.589 1067.79 121.57C1067.84 121.551 1067.88 121.52 1067.91 121.479C1067.93 121.438 1067.95 121.391 1067.95 121.342C1067.92 116.783 1067.32 109.928 1073.99 109.965C1078.81 109.989 1083.12 109.962 1086.92 109.882C1091.7 109.78 1092.71 112.622 1092.64 117.079C1092.63 117.54 1092.65 121.661 1092.69 129.443C1092.73 135.176 1092.69 165.493 1092.57 220.394C1092.57 222.276 1092.21 225.549 1091.5 230.212C1090.19 238.876 1086.45 247.761 1081.47 253.87C1073.08 264.139 1058.25 268.578 1045.39 268.67C1027.03 268.808 1007.47 270.22 993.716 255.328C991.452 252.879 989.398 249.244 987.552 244.421C986.451 241.549 986.377 239.3 987.331 237.676C988.641 235.437 990.554 234.256 993.07 234.133C997.714 233.912 1001.86 233.872 1005.5 234.013C1006.17 234.039 1006.82 234.211 1007.41 234.517C1008.01 234.823 1008.52 235.256 1008.93 235.785C1016.92 246.211 1027.51 244.91 1038.97 245.076C1044.2 245.15 1048.02 244.932 1050.43 244.421C1059.58 242.49 1065.24 236.732 1067.4 227.148C1068.49 222.322 1068.11 215.144 1067.79 209.875ZM1004.15 166.351C1004.2 172.044 1004.02 175.403 1004.79 179.214C1006.66 188.551 1011.8 194.804 1020.22 197.972C1026.17 200.205 1033.34 200.196 1040.32 199.91C1051.59 199.449 1061.97 194.9 1065.83 183.569C1067.94 177.414 1067.98 172.81 1067.92 165.825C1067.87 160.132 1068.05 156.773 1067.28 152.963C1065.41 143.625 1060.27 137.372 1051.86 134.204C1045.9 131.971 1038.73 131.98 1031.75 132.266C1020.48 132.728 1010.1 137.277 1006.24 148.608C1004.14 154.762 1004.1 159.366 1004.15 166.351Z" fill="white"/>
<path d="M1004.15 166.352C1004.1 159.367 1004.14 154.762 1006.24 148.608C1010.1 137.277 1020.48 132.728 1031.75 132.267C1038.73 131.981 1045.9 131.972 1051.86 134.204C1060.27 137.372 1065.41 143.625 1067.28 152.963C1068.05 156.774 1067.87 160.132 1067.92 165.826C1067.98 172.81 1067.94 177.415 1065.83 183.569C1061.97 194.9 1051.59 199.449 1040.32 199.91C1033.34 200.196 1026.17 200.206 1020.22 197.973C1011.8 194.805 1006.66 188.552 1004.79 179.214C1004.02 175.403 1004.2 172.045 1004.15 166.352Z" fill="#191918"/>
</svg>
