<svg viewBox="100 -40 372 372" xmlns="http://www.w3.org/2000/svg">
<path d="M427.275 62.4085C427.854 63.4481 429.238 65.2597 431.428 67.8433C434.516 71.491 438.554 73.4195 443.543 73.6286C450.906 73.9331 458.131 72.6044 462.652 66.45C466.62 61.0706 469.277 53.6705 467.515 46.9071C462.246 26.6998 438.569 26.3123 428.318 41.8691C424.969 46.9532 425.218 55.5897 426.593 60.7108C426.752 61.3053 426.981 61.8754 427.275 62.4085ZM358.552 211.149C364.119 206.75 368.594 202.632 371.978 198.794C379.119 190.692 383.585 185.664 385.375 183.707C389.952 178.706 392.923 174.019 397.481 167.837C397.53 167.767 397.602 167.718 397.684 167.696C397.765 167.674 397.852 167.682 397.93 167.717C398.008 167.753 398.072 167.815 398.111 167.892C398.15 167.969 398.162 168.057 398.146 168.141C396.632 175.219 395.064 181.797 395.433 188.93C395.759 195.167 395.922 198.375 395.922 198.554C395.897 200.03 396.679 202.943 398.266 207.292C401.267 215.516 406.671 221.412 414.477 224.98C433.467 233.663 455.805 225.441 467.625 209.285C470.264 205.668 472.663 203.121 470.91 199.255C469.591 196.339 459.063 191.421 456.036 190.056C455.538 189.829 454.978 189.774 454.446 189.901C453.915 190.029 453.441 190.33 453.102 190.757C448.285 196.773 442.113 201.442 434.048 200.953C429.13 200.648 425.771 198.757 424.987 193.71C424.274 189.127 424.218 184.612 424.821 180.164C425.965 171.7 427.445 163.715 429.259 156.211C432.766 141.73 436.653 127.004 440.922 112.032C442.814 105.416 441.596 97.3791 435.543 93.2269C429.619 89.1578 422.8 90.468 417.402 94.7955C415.92 95.9827 414.21 98.2003 412.272 101.448C410.937 103.675 409.415 106.049 407.705 108.572C394.313 128.262 380.073 146.393 364.984 162.965C363.04 165.1 361.028 167.163 358.949 169.156C358.531 169.562 358.309 170.014 358.285 170.513C357.811 170.537 357.497 170.636 357.344 170.808C354.311 174.081 350.885 177.319 347.065 180.524C343.282 183.698 339.868 185.341 336.001 187.86C325.658 194.605 312.74 197.17 300.348 196.348C294.12 195.933 288.058 193.368 285.179 187.693C280.658 178.799 279.578 169.682 279.273 159.2C279.064 151.923 278.994 145.372 279.061 139.547C279.089 137.388 279.689 136.262 281.091 134.896C285.52 130.606 292.966 123.243 300.2 117.429C306.967 111.998 311.793 108.055 314.678 105.6C317.304 103.355 319.826 101.362 322.244 99.6212C328.039 95.4414 345.985 80.1337 353.136 82.8649C353.538 83.0173 353.908 83.246 354.225 83.5385L356.781 85.9744C357.019 86.2005 357.293 86.3845 357.593 86.5188C367.253 90.8832 378.04 87.8475 382.063 77.7255C383.853 73.2288 384.757 69.9778 384.776 67.9725C384.822 61.735 383.272 53.975 378.686 49.4076C375.93 46.6579 373.592 44.871 371.673 44.0467C359.457 38.7965 345.109 42.5242 333.667 48.9278C326.242 53.0861 320.063 56.9553 315.13 60.5354C311.482 63.1867 304.946 68.1601 295.522 75.4556C289.906 79.8046 284.844 84.0337 280.335 88.1428C276.219 91.889 271.184 96.1673 265.23 100.978C265.191 101.009 265.146 101.031 265.097 101.043C265.049 101.055 264.998 101.055 264.949 101.044C264.901 101.034 264.855 101.012 264.816 100.982C264.776 100.951 264.744 100.912 264.722 100.867C262.388 96.281 259.601 90.3019 256.372 86.2143C251.42 79.9399 245.788 74.9973 239.477 71.3864C233.227 67.8063 226.116 65.6103 218.144 64.7983C203.781 63.3405 190.217 65.8472 177.453 72.3184C174.18 73.9793 170.044 76.4952 165.043 79.8661C160.589 82.8618 156.861 85.9375 153.859 89.0932C146.631 96.6901 141.993 102.122 139.945 105.388C135.171 113.004 132.117 118.401 130.782 121.582C128.525 126.983 126.427 133.804 124.49 142.047C123.019 148.272 123.982 154.301 127.378 160.132C129.401 163.602 132.468 166.065 136.577 167.523C138.453 168.194 141.061 168.587 144.402 168.704C153.499 169.018 158.482 161.719 160.733 153.839C162.81 146.569 163.861 141.918 166.205 136.659C170.883 126.149 180.682 115.067 190.961 109.614C195.384 107.27 198.832 105.702 201.305 104.908C206.444 103.257 214.103 102.86 219.233 105.61C223.145 107.713 226.384 110.497 228.949 113.96C231.81 117.826 233.433 124.442 234.292 128.973C234.395 129.528 234.373 130.1 234.226 130.644C234.079 131.189 233.811 131.693 233.443 132.119C230.687 135.312 227.599 138.793 224.179 142.564C219.239 148.008 209.646 157.641 195.4 171.463C192.89 173.893 191.601 175.139 191.533 175.2C183.663 182.222 176.383 189.336 167.626 196.478C164.249 199.234 159.506 203.05 153.398 207.928C149.418 211.103 145.386 214.077 141.301 216.851C135.027 221.114 130.853 223.91 128.78 225.238C125.883 227.09 123.662 228.179 122.118 228.505C114.395 230.129 107.77 233.912 107.41 242.576C107.309 245.012 107.014 248.103 108.038 250.373C112.073 259.292 119.224 263.1 129.491 261.796C137.961 260.726 144.734 255.42 151.497 252.052C156.729 249.459 161.306 246.331 165.264 243.508C174.685 236.791 185.25 229.234 194.827 221.335C211.448 207.618 227.334 192.845 242.485 177.018C242.543 176.958 242.618 176.916 242.7 176.899C242.782 176.881 242.867 176.888 242.945 176.918C243.023 176.949 243.09 177.002 243.138 177.07C243.186 177.139 243.212 177.22 243.214 177.304C243.371 183.67 244.764 187.943 246.905 196.754C247.631 199.763 248.895 202.946 250.697 206.304C253.287 211.139 255.36 214.597 256.916 216.676C262.133 223.645 268.724 228.748 276.69 231.983C281.531 233.952 287.482 235.081 294.544 235.37C300.726 235.616 306.804 235.29 312.777 234.392C318.59 233.506 324.966 230.553 329.183 229.197C332.744 228.059 336.171 226.539 339.462 224.639C347.563 219.97 352.721 217.017 358.552 211.149Z" fill="#191918"/>
<path d="M426.593 60.7107C425.218 55.5897 424.969 46.9532 428.318 41.8691C438.57 26.3123 462.246 26.6998 467.515 46.9071C469.277 53.6705 466.62 61.0706 462.652 66.45C458.131 72.6044 450.906 73.9331 443.543 73.6286C438.554 73.4195 434.516 71.491 431.428 67.8432C429.238 65.2597 427.854 63.4481 427.276 62.4085C426.982 61.8754 426.752 61.3053 426.593 60.7107Z" fill="#015EF8"/>
<path d="M358.285 170.513L358.552 211.149C352.721 217.017 347.563 219.97 339.462 224.639C336.171 226.539 332.744 228.059 329.183 229.197C324.966 230.553 318.59 233.506 312.777 234.392C306.804 235.29 300.726 235.616 294.544 235.37C287.482 235.081 281.531 233.952 276.69 231.983C268.724 228.748 262.133 223.645 256.916 216.676C255.36 214.597 253.287 211.14 250.697 206.305C248.895 202.946 247.631 199.763 246.905 196.755C244.764 187.943 243.371 183.671 243.214 177.304C243.212 177.22 243.186 177.139 243.138 177.07C243.09 177.002 243.023 176.949 242.945 176.918C242.867 176.888 242.782 176.881 242.7 176.899C242.618 176.916 242.543 176.958 242.485 177.018C227.334 192.845 211.448 207.618 194.827 221.335C185.25 229.234 174.685 236.791 165.264 243.508C161.306 246.332 156.729 249.459 151.497 252.052C144.734 255.42 137.961 260.726 129.491 261.796C119.224 263.1 112.073 259.292 108.038 250.373C107.014 248.103 107.309 245.012 107.41 242.576C107.77 233.912 114.395 230.129 122.118 228.505C123.662 228.179 125.883 227.09 128.78 225.238C130.853 223.91 135.027 221.114 141.301 216.851C145.386 214.077 149.418 211.103 153.398 207.928C159.506 203.05 164.249 199.234 167.626 196.478C176.383 189.336 183.663 182.222 191.533 175.2C191.601 175.139 192.89 173.893 195.4 171.463C209.646 157.641 219.239 148.008 224.179 142.564C227.599 138.793 230.687 135.312 233.443 132.119C233.811 131.693 234.079 131.189 234.226 130.644C234.373 130.1 234.395 129.528 234.292 128.973C233.433 124.442 231.81 117.826 228.949 113.96C226.384 110.497 223.145 107.713 219.233 105.61C214.103 102.86 206.444 103.257 201.305 104.908C198.832 105.702 195.384 107.271 190.961 109.614C180.682 115.067 170.883 126.149 166.205 136.659C163.861 141.918 162.81 146.569 160.733 153.839C158.482 161.719 153.499 169.018 144.402 168.704C141.061 168.587 138.453 168.194 136.577 167.523C132.468 166.065 129.401 163.602 127.378 160.132C123.982 154.301 123.019 148.272 124.49 142.047C126.427 133.804 128.525 126.983 130.782 121.582C132.117 118.401 135.171 113.004 139.945 105.388C141.993 102.122 146.631 96.6902 153.859 89.0932C156.861 85.9376 160.589 82.8619 165.043 79.8662C170.044 76.4952 174.18 73.9793 177.453 72.3185C190.217 65.8472 203.781 63.3405 218.144 64.7984C226.116 65.6104 233.227 67.8064 239.477 71.3865C245.789 74.9974 251.42 79.94 256.372 86.2144C259.601 90.302 262.388 96.2811 264.722 100.867C264.744 100.912 264.776 100.951 264.816 100.982C264.855 101.012 264.901 101.034 264.949 101.045C264.998 101.055 265.049 101.055 265.097 101.043C265.146 101.032 265.191 101.009 265.23 100.978C271.184 96.1673 276.219 91.889 280.335 88.1428C284.844 84.0337 289.906 79.8047 295.522 75.4556C304.946 68.1601 311.482 63.1868 315.13 60.5355C320.063 56.9554 326.242 53.0862 333.667 48.9279C345.109 42.5243 359.457 38.7966 371.673 44.0468C373.592 44.871 375.93 46.658 378.686 49.4077C383.272 53.9751 384.822 61.735 384.776 67.9725C384.757 69.9779 383.853 73.2289 382.063 77.7255C378.04 87.8476 367.253 90.8833 357.593 86.5189C357.293 86.3846 357.019 86.2005 356.781 85.9745L354.225 83.5386C353.908 83.246 353.538 83.0174 353.136 82.865C345.985 80.1338 328.038 95.4414 322.244 99.6213C319.826 101.362 317.304 103.355 314.678 105.6C311.793 108.055 306.967 111.998 300.2 117.43C292.966 123.243 285.52 130.606 281.091 134.896C279.689 136.262 279.089 137.388 279.061 139.547C278.994 145.372 279.064 151.923 279.273 159.2C279.578 169.682 280.658 178.799 285.179 187.694C288.058 193.368 294.12 195.933 300.348 196.349C312.74 197.17 325.658 194.605 336.001 187.86C339.868 185.341 343.282 183.698 347.065 180.524C350.885 177.319 354.311 174.081 357.344 170.808C357.497 170.636 357.811 170.537 358.285 170.513Z" fill="#015EF8"/>
<path d="M821.419 92.959C829.435 92.959 835.934 86.4608 835.934 78.4448C835.934 70.4289 829.435 63.9307 821.419 63.9307C813.403 63.9307 806.905 70.4289 806.905 78.4448C806.905 86.4608 813.403 92.959 821.419 92.959Z" fill="white"/>
<path d="M358.553 211.149L358.285 170.513C358.31 170.015 358.531 169.562 358.949 169.156C361.029 167.163 363.04 165.1 364.984 162.965C380.073 146.393 394.314 128.262 407.705 108.572C409.415 106.05 410.938 103.675 412.273 101.448C414.21 98.2004 415.92 95.9828 417.403 94.7956C422.801 90.4681 429.62 89.1579 435.543 93.227C441.596 97.3792 442.814 105.416 440.923 112.032C436.654 127.004 432.766 141.731 429.26 156.211C427.445 163.716 425.966 171.7 424.821 180.164C424.219 184.612 424.274 189.127 424.988 193.71C425.772 198.757 429.13 200.648 434.048 200.953C442.113 201.442 448.286 196.773 453.102 190.757C453.442 190.33 453.915 190.029 454.447 189.902C454.979 189.775 455.538 189.829 456.037 190.056C459.063 191.421 469.591 196.339 470.911 199.255C472.664 203.121 470.265 205.668 467.626 209.285C455.806 225.442 433.467 233.663 414.478 224.98C406.672 221.412 401.268 215.516 398.266 207.292C396.679 202.943 395.898 200.03 395.922 198.554C395.922 198.375 395.759 195.167 395.433 188.93C395.064 181.797 396.633 175.219 398.146 168.141C398.163 168.057 398.15 167.969 398.111 167.892C398.072 167.815 398.008 167.753 397.93 167.717C397.853 167.682 397.766 167.674 397.684 167.696C397.602 167.718 397.531 167.768 397.482 167.837C392.924 174.019 389.952 178.706 385.376 183.708C383.586 185.664 379.12 190.692 371.978 198.794C368.595 202.632 364.12 206.751 358.553 211.149Z" fill="white"/>
</svg>
